# xmcd CD database file
#
# Track frame offsets:
#	150
#	24000
#	41608
#	56740
#	92221
#	113371
#	132948
#	163947
#	179472
#	196628
#
# Disc length: 2870 seconds
#
# Revision: 1
# Processed by: cddbd v1.5.2PL0 Copyright (c) Steve Scherf et al.
# Submitted via: CDex 1.70beta2
#
DISCID=790b340a
DTITLE=Panzerballett - Starke Stücke
DYEAR=2008
DGENRE=Jazz
TTITLE0=Pink Panther
TTITLE1=M.w.M.i.O.f.R.
TTITLE2=Smoke on the Water
TTITLE3=Friede, Freude, Fußball
TTITLE4=Wind of Change
TTITLE5=Birdland
TTITLE6=Dreamology
TTITLE7=Thunderstruck
TTITLE8=Zickenterror
TTITLE9=Paranoid
EXTD=YEAR: 2008
EXTT0=
EXTT1=
EXTT2=
EXTT3=
EXTT4=
EXTT5=
EXTT6=
EXTT7=
EXTT8=
EXTT9=
PLAYORDER=
